ffmpeg started on 2025-05-25 at 19:12:48
Report written to "D:\Convert\FFMetrics\reports\psnr_report-6.txt"
Log level: 32
Command line:
ffmpeg -hide_banner -nostdin -i "G:\\\xc0\xed\xe8\xec\xe5\\\xce\xed\xe3\xee\xe8\xed\xe3\xe8\\!_34_\xc2\xe5\xf1\xed\xe0_2024\\JamClub\\\xc1\xee\xf0\xfc\xe1\xe0 \xe2 \xef\xf0\xff\xec\xee\xec \xfd\xf4\xe8\xf0\xe5\\[JAM_CLUB]_Kenka_Dokugaku_12_[1080p][RUS][DUB]_HEVC.mkv" -i "G:\\\xc0\xed\xe8\xec\xe5\\\xce\xed\xe3\xee\xe8\xed\xe3\xe8\\!_34_\xc2\xe5\xf1\xed\xe0_2024\\JamClub\\\xc1\xee\xf0\xfc\xe1\xe0 \xe2 \xef\xf0\xff\xec\xee\xec \xfd\xf4\xe8\xf0\xe5\\[JAM_CLUB]_Kenka_Dokugaku_12_[1080p][RUS][DUB].mp4" -lavfi "[0:v]settb=AVTB,setpts=PTS-STARTPTS,format=pix_fmts=yuv420p10,fps=24000/1001,scale=1920:1080:flags=bicubic[main];[1:v]settb=AVTB,setpts=PTS-STARTPTS,format=pix_fmts=yuv420p,fps=24000/1001,scale=1920:1080:flags=bicubic[ref];[main][ref]psnr=eof_action=endall:stats_file='D\\:/Convert/FFMetrics/logs/psnr_logfile-6.txt'" -f null -
Input #0, matroska,webm, from 'G:\Аниме\Онгоинги\!_34_Весна_2024\JamClub\Борьба в прямом эфире\[JAM_CLUB]_Kenka_Dokugaku_12_[1080p][RUS][DUB]_HEVC.mkv':
  Metadata:
    COMPATIBLE_BRANDS: isomiso2avc1mp41
    MAJOR_BRAND     : isom
    MINOR_VERSION   : 512
    ENCODER         : Lavf61.7.100
  Duration: 00:23:17.38, start: -0.001000, bitrate: 1478 kb/s
  Stream #0:0: Video: hevc (Main 10), yuv420p10le(tv, bt709, progressive), 1920x1080 [SAR 1:1 DAR 16:9], 23.98 fps, 23.98 tbr, 1k tbn (default)
      Metadata:
        HANDLER_NAME    : VideoHandler
        VENDOR_ID       : [0][0][0][0]
        ENCODER         : Lavc61.19.100 libx265
        BPS             : 1279216
        DURATION        : 00:23:17.228708333
        NUMBER_OF_FRAMES: 33500
        NUMBER_OF_BYTES : 223419641
        _STATISTICS_WRITING_APP: mkvpropedit v66.0.0 ('Josie') 64-bit
        _STATISTICS_WRITING_DATE_UTC: 2025-05-25 15:14:45
        _STATISTICS_TAGS: BPS DURATION NUMBER_OF_FRAMES NUMBER_OF_BYTES
  Stream #0:1(eng): Audio: aac (LC), 48000 Hz, stereo, fltp (default)
      Metadata:
        HANDLER_NAME    : SoundHandler
        VENDOR_ID       : [0][0][0][0]
        ENCODER         : Lavc61.19.100 aac
        BPS             : 195192
        DURATION        : 00:23:17.336000000
        NUMBER_OF_FRAMES: 65501
        NUMBER_OF_BYTES : 34093681
        _STATISTICS_WRITING_APP: mkvpropedit v66.0.0 ('Josie') 64-bit
        _STATISTICS_WRITING_DATE_UTC: 2025-05-25 15:14:45
        _STATISTICS_TAGS: BPS DURATION NUMBER_OF_FRAMES NUMBER_OF_BYTES
Input #1, mov,mp4,m4a,3gp,3g2,mj2, from 'G:\Аниме\Онгоинги\!_34_Весна_2024\JamClub\Борьба в прямом эфире\[JAM_CLUB]_Kenka_Dokugaku_12_[1080p][RUS][DUB].mp4':
  Metadata:
    major_brand     : isom
    minor_version   : 512
    compatible_brands: isomiso2avc1mp41
    encoder         : Lavf60.16.100
  Duration: 00:23:17.36, start: 0.000000, bitrate: 4484 kb/s
  Stream #1:0[0x1](und): Video: h264 (High) (avc1 / 0x31637661), yuv420p(progressive), 1920x1080 [SAR 1:1 DAR 16:9], 4286 kb/s, 23.98 fps, 23.98 tbr, 90k tbn (default)
      Metadata:
        handler_name    : VideoHandler
        vendor_id       : [0][0][0][0]
  Stream #1:1[0x2](eng): Audio: aac (LC) (mp4a / 0x6134706D), 48000 Hz, stereo, fltp, 191 kb/s (default)
      Metadata:
        handler_name    : SoundHandler
        vendor_id       : [0][0][0][0]
Stream mapping:
  Stream #0:0 (hevc) -> settb:default
  Stream #1:0 (h264) -> settb:default
  psnr:default -> Stream #0:0 (wrapped_avframe)
  Stream #0:1 -> #0:1 (aac (native) -> pcm_s16le (native))
Output #0, null, to 'pipe:':
  Metadata:
    COMPATIBLE_BRANDS: isomiso2avc1mp41
    MAJOR_BRAND     : isom
    MINOR_VERSION   : 512
    encoder         : Lavf61.7.100
  Stream #0:0: Video: wrapped_avframe, yuv420p10le(tv, bt709, progressive), 1920x1080 [SAR 1:1 DAR 16:9], q=2-31, 200 kb/s, 23.98 fps, 23.98 tbn
      Metadata:
        encoder         : Lavc61.19.100 wrapped_avframe
  Stream #0:1(eng): Audio: pcm_s16le, 48000 Hz, stereo, s16, 1536 kb/s (default)
      Metadata:
        HANDLER_NAME    : SoundHandler
        VENDOR_ID       : [0][0][0][0]
        _STATISTICS_TAGS: BPS DURATION NUMBER_OF_FRAMES NUMBER_OF_BYTES
        BPS             : 195192
        DURATION        : 00:23:17.336000000
        NUMBER_OF_FRAMES: 65501
        NUMBER_OF_BYTES : 34093681
        _STATISTICS_WRITING_APP: mkvpropedit v66.0.0 ('Josie') 64-bit
        _STATISTICS_WRITING_DATE_UTC: 2025-05-25 15:14:45
        encoder         : Lavc61.19.100 pcm_s16le
frame=  111 fps=0.0 q=-0.0 size=N/A time=00:00:04.62 bitrate=N/A speed=9.06x    frame=  274 fps=266 q=-0.0 size=N/A time=00:00:11.42 bitrate=N/A speed=11.1x    frame=  477 fps=310 q=-0.0 size=N/A time=00:00:19.89 bitrate=N/A speed=12.9x    frame=  712 fps=345 q=-0.0 size=N/A time=00:00:29.69 bitrate=N/A speed=14.4x    frame=  909 fps=354 q=-0.0 size=N/A time=00:00:37.91 bitrate=N/A speed=14.8x    frame= 1132 fps=366 q=-0.0 size=N/A time=00:00:47.21 bitrate=N/A speed=15.3x    frame= 1350 fps=375 q=-0.0 size=N/A time=00:00:56.30 bitrate=N/A speed=15.6x    frame= 1541 fps=375 q=-0.0 size=N/A time=00:01:04.27 bitrate=N/A speed=15.6x    frame= 1736 fps=374 q=-0.0 size=N/A time=00:01:12.40 bitrate=N/A speed=15.6x    frame= 1948 fps=379 q=-0.0 size=N/A time=00:01:21.24 bitrate=N/A speed=15.8x    frame= 2143 fps=378 q=-0.0 size=N/A time=00:01:29.38 bitrate=N/A speed=15.8x    frame= 2350 fps=380 q=-0.0 size=N/A time=00:01:38.01 bitrate=N/A speed=15.8x    frame= 2548 fps=381 q=-0.0 size=N/A time=00:01:46.27 bitrate=N/A speed=15.9x    frame= 2789 fps=386 q=-0.0 size=N/A time=00:01:56.32 bitrate=N/A speed=16.1x    frame= 3012 fps=390 q=-0.0 size=N/A time=00:02:05.62 bitrate=N/A speed=16.3x    frame= 3156 fps=383 q=-0.0 size=N/A time=00:02:11.63 bitrate=N/A speed=  16x    frame= 3316 fps=379 q=-0.0 size=N/A time=00:02:18.30 bitrate=N/A speed=15.8x    frame= 3477 fps=375 q=-0.0 size=N/A time=00:02:25.01 bitrate=N/A speed=15.6x    frame= 3708 fps=379 q=-0.0 size=N/A time=00:02:34.65 bitrate=N/A speed=15.8x    frame= 3932 fps=382 q=-0.0 size=N/A time=00:02:43.99 bitrate=N/A speed=15.9x    frame= 4118 fps=380 q=-0.0 size=N/A time=00:02:51.75 bitrate=N/A speed=15.9x    frame= 4299 fps=379 q=-0.0 size=N/A time=00:02:59.30 bitrate=N/A speed=15.8x    frame= 4510 fps=381 q=-0.0 size=N/A time=00:03:08.10 bitrate=N/A speed=15.9x    frame= 4743 fps=384 q=-0.0 size=N/A time=00:03:17.82 bitrate=N/A speed=  16x    frame= 4978 fps=386 q=-0.0 size=N/A time=00:03:27.62 bitrate=N/A speed=16.1x    frame= 5234 fps=391 q=-0.0 size=N/A time=00:03:38.34 bitrate=N/A speed=16.3x    frame= 5485 fps=394 q=-0.0 size=N/A time=00:03:48.77 bitrate=N/A speed=16.4x    frame= 5735 fps=398 q=-0.0 size=N/A time=00:03:59.19 bitrate=N/A speed=16.6x    frame= 5996 fps=401 q=-0.0 size=N/A time=00:04:10.08 bitrate=N/A speed=16.7x    frame= 6178 fps=400 q=-0.0 size=N/A time=00:04:17.67 bitrate=N/A speed=16.7x    frame= 6333 fps=396 q=-0.0 size=N/A time=00:04:24.13 bitrate=N/A speed=16.5x    frame= 6481 fps=393 q=-0.0 size=N/A time=00:04:30.31 bitrate=N/A speed=16.4x    frame= 6682 fps=393 q=-0.0 size=N/A time=00:04:38.69 bitrate=N/A speed=16.4x    frame= 6933 fps=395 q=-0.0 size=N/A time=00:04:49.16 bitrate=N/A speed=16.5x    frame= 7121 fps=395 q=-0.0 size=N/A time=00:04:57.00 bitrate=N/A speed=16.5x    frame= 7336 fps=395 q=-0.0 size=N/A time=00:05:05.97 bitrate=N/A speed=16.5x    frame= 7581 fps=397 q=-0.0 size=N/A time=00:05:16.19 bitrate=N/A speed=16.6x    frame= 7803 fps=398 q=-0.0 size=N/A time=00:05:25.45 bitrate=N/A speed=16.6x    frame= 7960 fps=396 q=-0.0 size=N/A time=00:05:31.99 bitrate=N/A speed=16.5x    frame= 8196 fps=398 q=-0.0 size=N/A time=00:05:41.84 bitrate=N/A speed=16.6x    frame= 8410 fps=398 q=-0.0 size=N/A time=00:05:50.76 bitrate=N/A speed=16.6x    frame= 8556 fps=395 q=-0.0 size=N/A time=00:05:56.85 bitrate=N/A speed=16.5x    frame= 8779 fps=396 q=-0.0 size=N/A time=00:06:06.15 bitrate=N/A speed=16.5x    frame= 9050 fps=399 q=-0.0 size=N/A time=00:06:17.46 bitrate=N/A speed=16.6x    frame= 9283 fps=400 q=-0.0 size=N/A time=00:06:27.17 bitrate=N/A speed=16.7x    frame= 9487 fps=400 q=-0.0 size=N/A time=00:06:35.68 bitrate=N/A speed=16.7x    frame= 9756 fps=403 q=-0.0 size=N/A time=00:06:46.90 bitrate=N/A speed=16.8x    frame=10022 fps=405 q=-0.0 size=N/A time=00:06:58.00 bitrate=N/A speed=16.9x    frame=10311 fps=408 q=-0.0 size=N/A time=00:07:10.05 bitrate=N/A speed=  17x    frame=10555 fps=409 q=-0.0 size=N/A time=00:07:20.23 bitrate=N/A speed=17.1x    frame=10747 fps=408 q=-0.0 size=N/A time=00:07:28.23 bitrate=N/A speed=  17x    frame=10913 fps=407 q=-0.0 size=N/A time=00:07:35.16 bitrate=N/A speed=  17x    frame=11148 fps=408 q=-0.0 size=N/A time=00:07:44.96 bitrate=N/A speed=  17x    frame=11424 fps=410 q=-0.0 size=N/A time=00:07:56.47 bitrate=N/A speed=17.1x    frame=11660 fps=411 q=-0.0 size=N/A time=00:08:06.31 bitrate=N/A speed=17.1x    frame=11883 fps=411 q=-0.0 size=N/A time=00:08:15.62 bitrate=N/A speed=17.2x    frame=12095 fps=411 q=-0.0 size=N/A time=00:08:24.46 bitrate=N/A speed=17.2x    frame=12304 fps=411 q=-0.0 size=N/A time=00:08:33.17 bitrate=N/A speed=17.2x    frame=12554 fps=412 q=-0.0 size=N/A time=00:08:43.60 bitrate=N/A speed=17.2x    frame=12799 fps=414 q=-0.0 size=N/A time=00:08:53.82 bitrate=N/A speed=17.2x    frame=13046 fps=415 q=-0.0 size=N/A time=00:09:04.12 bitrate=N/A speed=17.3x    frame=13243 fps=414 q=-0.0 size=N/A time=00:09:12.34 bitrate=N/A speed=17.3x    frame=13437 fps=413 q=-0.0 size=N/A time=00:09:20.43 bitrate=N/A speed=17.2x    frame=13603 fps=412 q=-0.0 size=N/A time=00:09:27.35 bitrate=N/A speed=17.2x    frame=13789 fps=411 q=-0.0 size=N/A time=00:09:35.11 bitrate=N/A speed=17.2x    frame=13989 fps=411 q=-0.0 size=N/A time=00:09:43.45 bitrate=N/A speed=17.1x    frame=14210 fps=411 q=-0.0 size=N/A time=00:09:52.67 bitrate=N/A speed=17.1x    frame=14430 fps=411 q=-0.0 size=N/A time=00:10:01.85 bitrate=N/A speed=17.2x    frame=14710 fps=413 q=-0.0 size=N/A time=00:10:13.52 bitrate=N/A speed=17.2x    frame=14988 fps=415 q=-0.0 size=N/A time=00:10:25.12 bitrate=N/A speed=17.3x    frame=15270 fps=417 q=-0.0 size=N/A time=00:10:36.88 bitrate=N/A speed=17.4x    frame=15531 fps=418 q=-0.0 size=N/A time=00:10:47.77 bitrate=N/A speed=17.4x    frame=15796 fps=419 q=-0.0 size=N/A time=00:10:58.82 bitrate=N/A speed=17.5x    frame=16068 fps=421 q=-0.0 size=N/A time=00:11:10.16 bitrate=N/A speed=17.6x    frame=16244 fps=420 q=-0.0 size=N/A time=00:11:17.51 bitrate=N/A speed=17.5x    frame=16383 fps=418 q=-0.0 size=N/A time=00:11:23.30 bitrate=N/A speed=17.4x    frame=16509 fps=416 q=-0.0 size=N/A time=00:11:28.56 bitrate=N/A speed=17.3x    frame=16693 fps=415 q=-0.0 size=N/A time=00:11:36.23 bitrate=N/A speed=17.3x    frame=16882 fps=414 q=-0.0 size=N/A time=00:11:44.12 bitrate=N/A speed=17.3x    frame=17064 fps=413 q=-0.0 size=N/A time=00:11:51.71 bitrate=N/A speed=17.2x    frame=17288 fps=414 q=-0.0 size=N/A time=00:12:01.05 bitrate=N/A speed=17.3x    frame=17519 fps=414 q=-0.0 size=N/A time=00:12:10.68 bitrate=N/A speed=17.3x    frame=17728 fps=414 q=-0.0 size=N/A time=00:12:19.40 bitrate=N/A speed=17.3x    frame=17957 fps=414 q=-0.0 size=N/A time=00:12:28.95 bitrate=N/A speed=17.3x    frame=18166 fps=414 q=-0.0 size=N/A time=00:12:37.67 bitrate=N/A speed=17.3x    frame=18306 fps=413 q=-0.0 size=N/A time=00:12:43.51 bitrate=N/A speed=17.2x    frame=18501 fps=412 q=-0.0 size=N/A time=00:12:51.64 bitrate=N/A speed=17.2x    frame=18708 fps=412 q=-0.0 size=N/A time=00:13:00.27 bitrate=N/A speed=17.2x    frame=18949 fps=413 q=-0.0 size=N/A time=00:13:10.33 bitrate=N/A speed=17.2x    frame=19205 fps=414 q=-0.0 size=N/A time=00:13:21.00 bitrate=N/A speed=17.2x    frame=19465 fps=415 q=-0.0 size=N/A time=00:13:31.85 bitrate=N/A speed=17.3x    frame=19729 fps=416 q=-0.0 size=N/A time=00:13:42.86 bitrate=N/A speed=17.3x    frame=20026 fps=417 q=-0.0 size=N/A time=00:13:55.25 bitrate=N/A speed=17.4x    frame=20286 fps=418 q=-0.0 size=N/A time=00:14:06.09 bitrate=N/A speed=17.4x    frame=20546 fps=419 q=-0.0 size=N/A time=00:14:16.93 bitrate=N/A speed=17.5x    frame=20839 fps=421 q=-0.0 size=N/A time=00:14:29.15 bitrate=N/A speed=17.6x    frame=21125 fps=422 q=-0.0 size=N/A time=00:14:41.08 bitrate=N/A speed=17.6x    frame=21366 fps=423 q=-0.0 size=N/A time=00:14:51.14 bitrate=N/A speed=17.6x    frame=21558 fps=422 q=-0.0 size=N/A time=00:14:59.14 bitrate=N/A speed=17.6x    frame=21809 fps=423 q=-0.0 size=N/A time=00:15:09.61 bitrate=N/A speed=17.6x    frame=22082 fps=424 q=-0.0 size=N/A time=00:15:21.00 bitrate=N/A speed=17.7x    frame=22380 fps=425 q=-0.0 size=N/A time=00:15:33.43 bitrate=N/A speed=17.7x    frame=22647 fps=426 q=-0.0 size=N/A time=00:15:44.61 bitrate=N/A speed=17.8x    frame=22882 fps=427 q=-0.0 size=N/A time=00:15:54.37 bitrate=N/A speed=17.8x    frame=23171 fps=428 q=-0.0 size=N/A time=00:16:06.42 bitrate=N/A speed=17.8x    frame=23426 fps=428 q=-0.0 size=N/A time=00:16:17.05 bitrate=N/A speed=17.9x    frame=23663 fps=429 q=-0.0 size=N/A time=00:16:26.94 bitrate=N/A speed=17.9x    frame=23882 fps=429 q=-0.0 size=N/A time=00:16:36.07 bitrate=N/A speed=17.9x    frame=24152 fps=430 q=-0.0 size=N/A time=00:16:47.33 bitrate=N/A speed=17.9x    frame=24400 fps=430 q=-0.0 size=N/A time=00:16:57.68 bitrate=N/A speed=17.9x    frame=24656 fps=431 q=-0.0 size=N/A time=00:17:08.36 bitrate=N/A speed=  18x    frame=24936 fps=432 q=-0.0 size=N/A time=00:17:20.03 bitrate=N/A speed=  18x    frame=25199 fps=432 q=-0.0 size=N/A time=00:17:31.00 bitrate=N/A speed=  18x    frame=25431 fps=432 q=-0.0 size=N/A time=00:17:40.68 bitrate=N/A speed=  18x    frame=25695 fps=433 q=-0.0 size=N/A time=00:17:51.69 bitrate=N/A speed=18.1x    frame=25987 fps=434 q=-0.0 size=N/A time=00:18:03.87 bitrate=N/A speed=18.1x    frame=26265 fps=435 q=-0.0 size=N/A time=00:18:15.46 bitrate=N/A speed=18.1x    frame=26518 fps=436 q=-0.0 size=N/A time=00:18:26.02 bitrate=N/A speed=18.2x    frame=26730 fps=435 q=-0.0 size=N/A time=00:18:34.86 bitrate=N/A speed=18.2x    frame=26965 fps=436 q=-0.0 size=N/A time=00:18:44.70 bitrate=N/A speed=18.2x    frame=27243 fps=436 q=-0.0 size=N/A time=00:18:56.26 bitrate=N/A speed=18.2x    frame=27487 fps=437 q=-0.0 size=N/A time=00:19:06.43 bitrate=N/A speed=18.2x    frame=27769 fps=438 q=-0.0 size=N/A time=00:19:18.19 bitrate=N/A speed=18.3x    frame=28066 fps=439 q=-0.0 size=N/A time=00:19:30.58 bitrate=N/A speed=18.3x    frame=28348 fps=440 q=-0.0 size=N/A time=00:19:42.34 bitrate=N/A speed=18.3x    frame=28630 fps=441 q=-0.0 size=N/A time=00:19:54.10 bitrate=N/A speed=18.4x    frame=28891 fps=441 q=-0.0 size=N/A time=00:20:04.99 bitrate=N/A speed=18.4x    frame=29164 fps=442 q=-0.0 size=N/A time=00:20:16.38 bitrate=N/A speed=18.4x    frame=29444 fps=442 q=-0.0 size=N/A time=00:20:28.06 bitrate=N/A speed=18.5x    frame=29699 fps=443 q=-0.0 size=N/A time=00:20:38.69 bitrate=N/A speed=18.5x    frame=29974 fps=444 q=-0.0 size=N/A time=00:20:50.16 bitrate=N/A speed=18.5x    frame=30237 fps=444 q=-0.0 size=N/A time=00:21:01.13 bitrate=N/A speed=18.5x    frame=30506 fps=445 q=-0.0 size=N/A time=00:21:12.35 bitrate=N/A speed=18.5x    frame=30765 fps=445 q=-0.0 size=N/A time=00:21:23.15 bitrate=N/A speed=18.6x    frame=31017 fps=445 q=-0.0 size=N/A time=00:21:33.66 bitrate=N/A speed=18.6x    frame=31267 fps=446 q=-0.0 size=N/A time=00:21:44.09 bitrate=N/A speed=18.6x    frame=31510 fps=446 q=-0.0 size=N/A time=00:21:54.22 bitrate=N/A speed=18.6x    frame=31757 fps=446 q=-0.0 size=N/A time=00:22:04.53 bitrate=N/A speed=18.6x    frame=31984 fps=446 q=-0.0 size=N/A time=00:22:13.99 bitrate=N/A speed=18.6x    frame=32230 fps=446 q=-0.0 size=N/A time=00:22:24.25 bitrate=N/A speed=18.6x    frame=32504 fps=447 q=-0.0 size=N/A time=00:22:35.68 bitrate=N/A speed=18.6x    frame=32752 fps=447 q=-0.0 size=N/A time=00:22:46.03 bitrate=N/A speed=18.6x    frame=32976 fps=447 q=-0.0 size=N/A time=00:22:55.37 bitrate=N/A speed=18.6x    frame=33208 fps=447 q=-0.0 size=N/A time=00:23:05.05 bitrate=N/A speed=18.6x    frame=33465 fps=447 q=-0.0 size=N/A time=00:23:15.76 bitrate=N/A speed=18.7x    [Parsed_psnr_10 @ 0000022610c13240] PSNR y:48.673611 u:51.761767 v:50.624343 average:49.354566 min:35.748902 max:inf
[out#0/null @ 0000022610804700] video:14395KiB audio:262004KiB subtitle:0KiB other streams:0KiB global headers:0KiB muxing overhead: unknown
frame=33500 fps=448 q=-0.0 Lsize=N/A time=00:23:17.22 bitrate=N/A speed=18.7x    
